  <svg xmlns="http://www.w3.org/2000/svg" width="200" height="200" 
    viewBox="-25 -25 250 250" className="float"> 
          <defs>
          <linearGradient id="lgrad" x1="100%" y1="100%" x2="0%" y2="0%" >
            <stop offset="0%" style="stop-color:#804dee;stop-opacity:1.00" />
            <stop offset="100%" style="stop-color:#56ccf2;stop-opacity:1.00" />
          </linearGradient>
          </defs>
    <path d="M199.51180729384896 90.13084557260005 C199.6271737545009 82.97039235134076 195.37828090654367 68.93746912851398 192.63108119507592 62.32397583832327 C189.6028981343753 55.034055025572066 181.8234932317566 40.92654684273113 176.26623888378043 35.32032153355942 C165.40057951127403 24.358913118418556 138.56980027111305 7.175931182726156 123.75088063812706 2.8614614639820672 C112.95690457801686 -0.2811618857344369 89.61688758006053 -0.7371840903445808 78.78607985406832 2.27605415231109 C62.63326049626943 6.769928870336279 33.311813315305024 25.454775495389278 21.812635184002232 37.656307591464596 C15.785719506575738 44.051338978818855 6.743715349095106 59.936098429831965 5.070033088232833 68.56273895310233 C1.0742377202533069 89.15821937980492 5.798770429107858 132.87618709269887 14.549142996580642 151.94372952899298 C18.714669385583818 161.02064032100515 32.53620619205819 177.27670426795518 41.70007677223031 181.24727042575745 C68.66210263617938 192.92950736969902 132.07894342465266 191.7933834219624 159.23452765783492 180.56842268006238 C165.87436196456719 177.82379826742618 176.04743656947636 166.58004598548982 179.70256429471698 160.39454648266272 C188.98732991600394 144.6821234289496 199.21779762678614 108.37915149881582 199.51180729384896 90.13084557260005Z" stroke="none" fill="url(#lgrad)"  />
</svg>


