<svg xmlns="http://www.w3.org/2000/svg" version="1.1" xmlns:xlink="http://www.w3.org/1999/xlink" xmlns:svgjs="http://svgjs.dev/svgjs" width="1000" height="750" viewBox="0 0 1000 750"><rect width="1000" height="750" fill="#333366"></rect><g transform="matrix(0.6102403343782654,0,0,0.6102403343782654,195.43311880128778,83.23687385666477)"><svg viewBox="0 0 258 247" data-background-color="#333366" preserveAspectRatio="xMidYMid meet" height="957" width="1000" xmlns="http://www.w3.org/2000/svg" xmlns:xlink="http://www.w3.org/1999/xlink"><g id="tight-bounds" transform="matrix(1,0,0,1,-0.23392060060058384,-0.09997365579206985)"><svg viewBox="0 0 258.46784120120117 247.2" height="247.2" width="258.46784120120117"><g><svg viewBox="0 0 258.46784120120117 247.2" height="247.2" width="258.46784120120117"><g><svg viewBox="0 0 258.46784120120117 247.2" height="247.2" width="258.46784120120117"><g id="textblocktransform"><svg viewBox="0 0 258.46784120120117 247.2" height="247.2" width="258.46784120120117" id="textblock"><g><svg viewBox="0 0 258.46784120120117 247.2" height="247.2" width="258.46784120120117"><path d="M257.863 53.02C256.648 27.36 253.185 20.227 253.185 20.227 242.552-6.202 229.283-0.506 217.363 3.292 196.317 3.446 175.357 9.091 154.359 12.119 110.287 12.581 65.838 4.986 21.985 23.717 17.866 29.464-4.274 24.846 0.733 56.304 2.045 69.39 6.833 83.913 6.687 95.922 7.343 98.026 8.254 93.202 8.643 96.23 10.004 104.39 12.228 100.541 14.05 105.365 11.511 118.246 13.333 128.971 15.071 140.21 12.009 143.135 8.084 141.749 6.322 151.449 6.14 158.479 5.156 157.145 4.074 156.837 3.284 156.632 1.693 157.402 1.96 159.608 2.871 167.152-1.041 171.514 1.413 178.904-0.276 186.91 2.58 193.838 2.191 202.511 2.142 204.255 2.41 205.744 2.835 206.154 4.718 208.361 1.972 212.672 2.264 217.342 21.584 249.262 42.545 227.195 62.339 241.872 67.479 231.608 63.615 245.516 65.668 243.36 67.272 240.846 68.439 251.263 70.249 245.362 70.529 243.668 70.103 239.665 71.1 240.435 71.622 240.846 72.084 240.743 72.157 238.382 72.266 234.841 71.306 237.048 71.051 235.201 73.81 225.861 73.129 248.081 75.717 247.158 75.596 244.438 74.842 240.538 76.386 241.051 77.917 237.151 77.965 233.918 79.326 242.693 79.375 244.592 79.618 245.926 80.007 246.85 84.26 237.305 88.488 250.237 92.948 245.926 95.682 241.205 98.306 248.492 101.077 246.696 102.049 245.259 103.033 242.693 103.969 247.004 115.427 247.928 127.639 244.079 138.502 247.158 167.531 241.41 198.553 249.518 229.162 241.923 236.38 238.998 243.877 234.841 250.912 231.506 250.912 231.506 256.611 222.371 256.611 181.316S257.826 145.393 258.009 112.703C258.191 80.013 259.041 78.679 257.826 53.02Z" opacity="1" fill="#ffffff" data-fill-palette-color="tertiary"></path><g transform="matrix(1,0,0,1,55.76831999999999,26.230666666666668)"><svg width="146.9312012012012" viewBox="1.5 -21.9 16.75 22.2" height="194.73866666666666" data-palette-color="#333366"><path d="M18.2-20.7L5.55-0.9 15.4-0.9Q16.15-0.9 16.3-1.6L16.3-1.6 17.05-6.4 17.95-6.4 17.95-3.9Q17.95-0.9 18.25 0.3L18.25 0.3Q17.05 0 14.65 0L14.65 0 1.5 0 1.5-0.9 14.15-20.7 5.3-20.7Q4.55-20.7 4.4-20L4.4-20 3.65-15.2 2.75-15.2 2.75-17.7Q2.75-20.7 2.45-21.9L2.45-21.9Q3.65-21.6 6.05-21.6L6.05-21.6 18.2-21.6 18.2-20.7Z" opacity="1" transform="matrix(1,0,0,1,0,0)" fill="#333366" class="wordmark-text-0" data-fill-palette-color="quaternary" id="text-0"></path></svg></g></svg></g></svg></g></svg></g><g></g></svg></g><defs></defs></svg><rect width="258.46784120120117" height="247.2" fill="none" stroke="none" visibility="hidden"></rect></g></svg></g></svg>